<?xml version="1.0" standalone="no"?>
<!DOCTYPE svg PUBLIC "-//W3C//DTD SVG 20010904//EN"
 "http://www.w3.org/TR/2001/REC-SVG-20010904/DTD/svg10.dtd">
<svg version="1.0" xmlns="http://www.w3.org/2000/svg"
 width="260.000000pt" height="260.000000pt" viewBox="0 0 260.000000 260.000000"
 preserveAspectRatio="xMidYMid meet">
<metadata>
Created by potrace 1.11, written by Peter Selinger 2001-2013
</metadata>
<g transform="translate(0.000000,260.000000) scale(0.100000,-0.100000)"
fill="#000000" stroke="none">
<path d="M79 2577 c-18 -12 -44 -38 -56 -56 l-23 -34 2 -1191 c3 -1147 4
-1192 22 -1219 10 -15 33 -38 50 -50 l31 -22 1190 -2 1190 -3 39 28 c21 15 47
43 58 62 18 34 18 80 16 1222 -3 1181 -3 1187 -24 1214 -11 15 -33 37 -48 48
-27 21 -33 21 -1220 24 l-1193 2 -34 -23z"/>
</g>
</svg>
